<?xml version="1.0" encoding="utf-8" standalone="no"?>
<!DOCTYPE svg PUBLIC "-//W3C//DTD SVG 1.1//EN"
  "http://www.w3.org/Graphics/SVG/1.1/DTD/svg11.dtd">
<svg xmlns:xlink="http://www.w3.org/1999/xlink" width="856.8pt" height="351.838125pt" viewBox="0 0 856.8 351.838125" xmlns="http://www.w3.org/2000/svg" version="1.1">
 <metadata>
  <rdf:RDF xmlns:dc="http://purl.org/dc/elements/1.1/" xmlns:cc="http://creativecommons.org/ns#" xmlns:rdf="http://www.w3.org/1999/02/22-rdf-syntax-ns#">
   <cc:Work>
    <dc:type rdf:resource="http://purl.org/dc/dcmitype/StillImage"/>
    <dc:date>2026-09-04T05:06:01.658540</dc:date>
    <dc:format>image/svg+xml</dc:format>
    <dc:creator>
     <cc:Agent>
      <dc:title>Matplotlib v3.10.8, https://matplotlib.org/</dc:title>
     </cc:Agent>
    </dc:creator>
   </cc:Work>
  </rdf:RDF>
 </metadata>
 <defs>
  <style type="text/css">*{stroke-linejoin: round; stroke-linecap: butt}</style>
 </defs>
 <g id="figure_1">
  <g id="patch_1">
   <path d="M 0 351.838125 
L 856.8 351.838125 
L 856.8 0 
L 0 0 
z
" style="fill: #ffffff"/>
  </g>
  <g id="axes_1">
   <g id="text_1">
    <g id="patch_2">
     <path d="M 23.823469 179.55705 
L 108.512531 179.55705 
Q 114.012531 179.55705 114.012531 174.05705 
L 114.012531 164.3008 
Q 114.012531 158.8008 108.512531 158.8008 
L 23.823469 158.8008 
Q 18.323469 158.8008 18.323469 164.3008 
L 18.323469 174.05705 
Q 18.323469 179.55705 23.823469 179.55705 
z
" style="fill: #eaf2f8; stroke: #4c566a; stroke-linejoin: miter"/>
    </g>
    <!-- Training inputs -->
    <g transform="translate(23.823469 171.899237) scale(0.1 -0.1)">
     <defs>
      <path id="DejaVuSans-Bold-54" d="M 31 4666 
L 4331 4666 
L 4331 3756 
L 2784 3756 
L 2784 0 
L 1581 0 
L 1581 3756 
L 31 3756 
L 31 4666 
z
" transform="scale(0.015625)"/>
      <path id="DejaVuSans-Bold-72" d="M 3138 2547 
Q 2991 2616 2845 2648 
Q 2700 2681 2553 2681 
Q 2122 2681 1889 2404 
Q 1656 2128 1656 1613 
L 1656 0 
L 538 0 
L 538 3500 
L 1656 3500 
L 1656 2925 
Q 1872 3269 2151 3426 
Q 2431 3584 2822 3584 
Q 2878 3584 2943 3579 
Q 3009 3575 3134 3559 
L 3138 2547 
z
" transform="scale(0.015625)"/>
      <path id="DejaVuSans-Bold-61" d="M 2106 1575 
Q 1756 1575 1579 1456 
Q 1403 1338 1403 1106 
Q 1403 894 1545 773 
Q 1688 653 1941 653 
Q 2256 653 2472 879 
Q 2688 1106 2688 1447 
L 2688 1575 
L 2106 1575 
z
M 3816 1997 
L 3816 0 
L 2688 0 
L 2688 519 
Q 2463 200 2181 54 
Q 1900 -91 1497 -91 
Q 953 -91 614 226 
Q 275 544 275 1050 
Q 275 1666 698 1953 
Q 1122 2241 2028 2241 
L 2688 2241 
L 2688 2328 
Q 2688 2594 2478 2717 
Q 2269 2841 1825 2841 
Q 1466 2841 1156 2769 
Q 847 2697 581 2553 
L 581 3406 
Q 941 3494 1303 3539 
Q 1666 3584 2028 3584 
Q 2975 3584 3395 3211 
Q 3816 2838 3816 1997 
z
" transform="scale(0.015625)"/>
      <path id="DejaVuSans-Bold-69" d="M 538 3500 
L 1656 3500 
L 1656 0 
L 538 0 
L 538 3500 
z
M 538 4863 
L 1656 4863 
L 1656 3950 
L 538 3950 
L 538 4863 
z
" transform="scale(0.015625)"/>
      <path id="DejaVuSans-Bold-6e" d="M 4056 2131 
L 4056 0 
L 2931 0 
L 2931 347 
L 2931 1631 
Q 2931 2084 2911 2256 
Q 2891 2428 2841 2509 
Q 2775 2619 2662 2680 
Q 2550 2741 2406 2741 
Q 2056 2741 1856 2470 
Q 1656 2200 1656 1722 
L 1656 0 
L 538 0 
L 538 3500 
L 1656 3500 
L 1656 2988 
Q 1909 3294 2193 3439 
Q 2478 3584 2822 3584 
Q 3428 3584 3742 3212 
Q 4056 2841 4056 2131 
z
" transform="scale(0.015625)"/>
      <path id="DejaVuSans-Bold-67" d="M 2919 594 
Q 2688 288 2409 144 
Q 2131 0 1766 0 
Q 1125 0 706 504 
Q 288 1009 288 1791 
Q 288 2575 706 3076 
Q 1125 3578 1766 3578 
Q 2131 3578 2409 3434 
Q 2688 3291 2919 2981 
L 2919 3500 
L 4044 3500 
L 4044 353 
Q 4044 -491 3511 -936 
Q 2978 -1381 1966 -1381 
Q 1638 -1381 1331 -1331 
Q 1025 -1281 716 -1178 
L 716 -306 
Q 1009 -475 1290 -558 
Q 1572 -641 1856 -641 
Q 2406 -641 2662 -400 
Q 2919 -159 2919 353 
L 2919 594 
z
M 2181 2772 
Q 1834 2772 1640 2515 
Q 1447 2259 1447 1791 
Q 1447 1309 1634 1061 
Q 1822 813 2181 813 
Q 2531 813 2725 1069 
Q 2919 1325 2919 1791 
Q 2919 2259 2725 2515 
Q 2531 2772 2181 2772 
z
" transform="scale(0.015625)"/>
      <path id="DejaVuSans-Bold-20" transform="scale(0.015625)"/>
      <path id="DejaVuSans-Bold-70" d="M 1656 506 
L 1656 -1331 
L 538 -1331 
L 538 3500 
L 1656 3500 
L 1656 2988 
Q 1888 3294 2169 3439 
Q 2450 3584 2816 3584 
Q 3463 3584 3878 3070 
Q 4294 2556 4294 1747 
Q 4294 938 3878 423 
Q 3463 -91 2816 -91 
Q 2450 -91 2169 54 
Q 1888 200 1656 506 
z
M 2400 2772 
Q 2041 2772 1848 2508 
Q 1656 2244 1656 1747 
Q 1656 1250 1848 986 
Q 2041 722 2400 722 
Q 2759 722 2948 984 
Q 3138 1247 3138 1747 
Q 3138 2247 2948 2509 
Q 2759 2772 2400 2772 
z
" transform="scale(0.015625)"/>
      <path id="DejaVuSans-Bold-75" d="M 500 1363 
L 500 3500 
L 1625 3500 
L 1625 3150 
Q 1625 2866 1622 2436 
Q 1619 2006 1619 1863 
Q 1619 1441 1641 1255 
Q 1663 1069 1716 984 
Q 1784 875 1895 815 
Q 2006 756 2150 756 
Q 2500 756 2700 1025 
Q 2900 1294 2900 1772 
L 2900 3500 
L 4019 3500 
L 4019 0 
L 2900 0 
L 2900 506 
Q 2647 200 2364 54 
Q 2081 -91 1741 -91 
Q 1134 -91 817 281 
Q 500 653 500 1363 
z
" transform="scale(0.015625)"/>
      <path id="DejaVuSans-Bold-74" d="M 1759 4494 
L 1759 3500 
L 2913 3500 
L 2913 2700 
L 1759 2700 
L 1759 1216 
Q 1759 972 1856 886 
Q 1953 800 2241 800 
L 2816 800 
L 2816 0 
L 1856 0 
Q 1194 0 917 276 
Q 641 553 641 1216 
L 641 2700 
L 84 2700 
L 84 3500 
L 641 3500 
L 641 4494 
L 1759 4494 
z
" transform="scale(0.015625)"/>
      <path id="DejaVuSans-Bold-73" d="M 3272 3391 
L 3272 2541 
Q 2913 2691 2578 2766 
Q 2244 2841 1947 2841 
Q 1628 2841 1473 2761 
Q 1319 2681 1319 2516 
Q 1319 2381 1436 2309 
Q 1553 2238 1856 2203 
L 2053 2175 
Q 2913 2066 3209 1816 
Q 3506 1566 3506 1031 
Q 3506 472 3093 190 
Q 2681 -91 1863 -91 
Q 1516 -91 1145 -36 
Q 775 19 384 128 
L 384 978 
Q 719 816 1070 734 
Q 1422 653 1784 653 
Q 2113 653 2278 743 
Q 2444 834 2444 1013 
Q 2444 1163 2330 1236 
Q 2216 1309 1875 1350 
L 1678 1375 
Q 931 1469 631 1722 
Q 331 1975 331 2491 
Q 331 3047 712 3315 
Q 1094 3584 1881 3584 
Q 2191 3584 2531 3537 
Q 2872 3491 3272 3391 
z
" transform="scale(0.015625)"/>
     </defs>
     <use xlink:href="#DejaVuSans-Bold-54"/>
     <use xlink:href="#DejaVuSans-Bold-72" transform="translate(57.212891 0)"/>
     <use xlink:href="#DejaVuSans-Bold-61" transform="translate(106.529297 0)"/>
     <use xlink:href="#DejaVuSans-Bold-69" transform="translate(174.009766 0)"/>
     <use xlink:href="#DejaVuSans-Bold-6e" transform="translate(208.287109 0)"/>
     <use xlink:href="#DejaVuSans-Bold-69" transform="translate(279.478516 0)"/>
     <use xlink:href="#DejaVuSans-Bold-6e" transform="translate(313.755859 0)"/>
     <use xlink:href="#DejaVuSans-Bold-67" transform="translate(384.947266 0)"/>
     <use xlink:href="#DejaVuSans-Bold-20" transform="translate(456.529297 0)"/>
     <use xlink:href="#DejaVuSans-Bold-69" transform="translate(491.34375 0)"/>
     <use xlink:href="#DejaVuSans-Bold-6e" transform="translate(525.621094 0)"/>
     <use xlink:href="#DejaVuSans-Bold-70" transform="translate(596.8125 0)"/>
     <use xlink:href="#DejaVuSans-Bold-75" transform="translate(668.394531 0)"/>
     <use xlink:href="#DejaVuSans-Bold-74" transform="translate(739.585938 0)"/>
     <use xlink:href="#DejaVuSans-Bold-73" transform="translate(787.388672 0)"/>
    </g>
   </g>
   <g id="text_2">
    <!-- FastF1 -->
    <g transform="translate(53.283625 226.4381) scale(0.08 -0.08)">
     <defs>
      <path id="DejaVuSans-46" d="M 628 4666 
L 3309 4666 
L 3309 4134 
L 1259 4134 
L 1259 2759 
L 3109 2759 
L 3109 2228 
L 1259 2228 
L 1259 0 
L 628 0 
L 628 4666 
z
" transform="scale(0.015625)"/>
      <path id="DejaVuSans-61" d="M 2194 1759 
Q 1497 1759 1228 1600 
Q 959 1441 959 1056 
Q 959 750 1161 570 
Q 1363 391 1709 391 
Q 2188 391 2477 730 
Q 2766 1069 2766 1631 
L 2766 1759 
L 2194 1759 
z
M 3341 1997 
L 3341 0 
L 2766 0 
L 2766 531 
Q 2569 213 2275 61 
Q 1981 -91 1556 -91 
Q 1019 -91 701 211 
Q 384 513 384 1019 
Q 384 1609 779 1909 
Q 1175 2209 1959 2209 
L 2766 2209 
L 2766 2266 
Q 2766 2663 2505 2880 
Q 2244 3097 1772 3097 
Q 1472 3097 1187 3025 
Q 903 2953 641 2809 
L 641 3341 
Q 956 3463 1253 3523 
Q 1550 3584 1831 3584 
Q 2591 3584 2966 3190 
Q 3341 2797 3341 1997 
z
" transform="scale(0.015625)"/>
      <path id="DejaVuSans-73" d="M 2834 3397 
L 2834 2853 
Q 2591 2978 2328 3040 
Q 2066 3103 1784 3103 
Q 1356 3103 1142 2972 
Q 928 2841 928 2578 
Q 928 2378 1081 2264 
Q 1234 2150 1697 2047 
L 1894 2003 
Q 2506 1872 2764 1633 
Q 3022 1394 3022 966 
Q 3022 478 2636 193 
Q 2250 -91 1575 -91 
Q 1294 -91 989 -36 
Q 684 19 347 128 
L 347 722 
Q 666 556 975 473 
Q 1284 391 1588 391 
Q 1994 391 2212 530 
Q 2431 669 2431 922 
Q 2431 1156 2273 1281 
Q 2116 1406 1581 1522 
L 1381 1569 
Q 847 1681 609 1914 
Q 372 2147 372 2553 
Q 372 3047 722 3315 
Q 1072 3584 1716 3584 
Q 2034 3584 2315 3537 
Q 2597 3491 2834 3397 
z
" transform="scale(0.015625)"/>
      <path id="DejaVuSans-74" d="M 1172 4494 
L 1172 3500 
L 2356 3500 
L 2356 3053 
L 1172 3053 
L 1172 1153 
Q 1172 725 1289 603 
Q 1406 481 1766 481 
L 2356 481 
L 2356 0 
L 1766 0 
Q 1100 0 847 248 
Q 594 497 594 1153 
L 594 3053 
L 172 3053 
L 172 3500 
L 594 3500 
L 594 4494 
L 1172 4494 
z
" transform="scale(0.015625)"/>
      <path id="DejaVuSans-31" d="M 794 531 
L 1825 531 
L 1825 4091 
L 703 3866 
L 703 4441 
L 1819 4666 
L 2450 4666 
L 2450 531 
L 3481 531 
L 3481 0 
L 794 0 
L 794 531 
z
" transform="scale(0.015625)"/>
     </defs>
     <use xlink:href="#DejaVuSans-46"/>
     <use xlink:href="#DejaVuSans-61" transform="translate(48.394531 0)"/>
     <use xlink:href="#DejaVuSans-73" transform="translate(109.673828 0)"/>
     <use xlink:href="#DejaVuSans-74" transform="translate(161.773438 0)"/>
     <use xlink:href="#DejaVuSans-46" transform="translate(200.982422 0)"/>
     <use xlink:href="#DejaVuSans-31" transform="translate(258.501953 0)"/>
    </g>
    <!-- Race / Sprint / FP2 -->
    <g transform="translate(29.39175 235.39635) scale(0.08 -0.08)">
     <defs>
      <path id="DejaVuSans-52" d="M 2841 2188 
Q 3044 2119 3236 1894 
Q 3428 1669 3622 1275 
L 4263 0 
L 3584 0 
L 2988 1197 
Q 2756 1666 2539 1819 
Q 2322 1972 1947 1972 
L 1259 1972 
L 1259 0 
L 628 0 
L 628 4666 
L 2053 4666 
Q 2853 4666 3247 4331 
Q 3641 3997 3641 3322 
Q 3641 2881 3436 2590 
Q 3231 2300 2841 2188 
z
M 1259 4147 
L 1259 2491 
L 2053 2491 
Q 2509 2491 2742 2702 
Q 2975 2913 2975 3322 
Q 2975 3731 2742 3939 
Q 2509 4147 2053 4147 
L 1259 4147 
z
" transform="scale(0.015625)"/>
      <path id="DejaVuSans-63" d="M 3122 3366 
L 3122 2828 
Q 2878 2963 2633 3030 
Q 2388 3097 2138 3097 
Q 1578 3097 1268 2742 
Q 959 2388 959 1747 
Q 959 1106 1268 751 
Q 1578 397 2138 397 
Q 2388 397 2633 464 
Q 2878 531 3122 666 
L 3122 134 
Q 2881 22 2623 -34 
Q 2366 -91 2075 -91 
Q 1284 -91 818 406 
Q 353 903 353 1747 
Q 353 2603 823 3093 
Q 1294 3584 2113 3584 
Q 2378 3584 2631 3529 
Q 2884 3475 3122 3366 
z
" transform="scale(0.015625)"/>
      <path id="DejaVuSans-65" d="M 3597 1894 
L 3597 1613 
L 953 1613 
Q 991 1019 1311 708 
Q 1631 397 2203 397 
Q 2534 397 2845 478 
Q 3156 559 3463 722 
L 3463 178 
Q 3153 47 2828 -22 
Q 2503 -91 2169 -91 
Q 1331 -91 842 396 
Q 353 884 353 1716 
Q 353 2575 817 3079 
Q 1281 3584 2069 3584 
Q 2775 3584 3186 3129 
Q 3597 2675 3597 1894 
z
M 3022 2063 
Q 3016 2534 2758 2815 
Q 2500 3097 2075 3097 
Q 1594 3097 1305 2825 
Q 1016 2553 972 2059 
L 3022 2063 
z
" transform="scale(0.015625)"/>
      <path id="DejaVuSans-20" transform="scale(0.015625)"/>
      <path id="DejaVuSans-2f" d="M 1625 4666 
L 2156 4666 
L 531 -594 
L 0 -594 
L 1625 4666 
z
" transform="scale(0.015625)"/>
      <path id="DejaVuSans-53" d="M 3425 4513 
L 3425 3897 
Q 3066 4069 2747 4153 
Q 2428 4238 2131 4238 
Q 1616 4238 1336 4038 
Q 1056 3838 1056 3469 
Q 1056 3159 1242 3001 
Q 1428 2844 1947 2747 
L 2328 2669 
Q 3034 2534 3370 2195 
Q 3706 1856 3706 1288 
Q 3706 609 3251 259 
Q 2797 -91 1919 -91 
Q 1588 -91 1214 -16 
Q 841 59 441 206 
L 441 856 
Q 825 641 1194 531 
Q 1563 422 1919 422 
Q 2459 422 2753 634 
Q 3047 847 3047 1241 
Q 3047 1584 2836 1778 
Q 2625 1972 2144 2069 
L 1759 2144 
Q 1053 2284 737 2584 
Q 422 2884 422 3419 
Q 422 4038 858 4394 
Q 1294 4750 2059 4750 
Q 2388 4750 2728 4690 
Q 3069 4631 3425 4513 
z
" transform="scale(0.015625)"/>
      <path id="DejaVuSans-70" d="M 1159 525 
L 1159 -1331 
L 581 -1331 
L 581 3500 
L 1159 3500 
L 1159 2969 
Q 1341 3281 1617 3432 
Q 1894 3584 2278 3584 
Q 2916 3584 3314 3078 
Q 3713 2572 3713 1747 
Q 3713 922 3314 415 
Q 2916 -91 2278 -91 
Q 1894 -91 1617 61 
Q 1341 213 1159 525 
z
M 3116 1747 
Q 3116 2381 2855 2742 
Q 2594 3103 2138 3103 
Q 1681 3103 1420 2742 
Q 1159 2381 1159 1747 
Q 1159 1113 1420 752 
Q 1681 391 2138 391 
Q 2594 391 2855 752 
Q 3116 1113 3116 1747 
z
" transform="scale(0.015625)"/>
      <path id="DejaVuSans-72" d="M 2631 2963 
Q 2534 3019 2420 3045 
Q 2306 3072 2169 3072 
Q 1681 3072 1420 2755 
Q 1159 2438 1159 1844 
L 1159 0 
L 581 0 
L 581 3500 
L 1159 3500 
L 1159 2956 
Q 1341 3275 1631 3429 
Q 1922 3584 2338 3584 
Q 2397 3584 2469 3576 
Q 2541 3569 2628 3553 
L 2631 2963 
z
" transform="scale(0.015625)"/>
      <path id="DejaVuSans-69" d="M 603 3500 
L 1178 3500 
L 1178 0 
L 603 0 
L 603 3500 
z
M 603 4863 
L 1178 4863 
L 1178 4134 
L 603 4134 
L 603 4863 
z
" transform="scale(0.015625)"/>
      <path id="DejaVuSans-6e" d="M 3513 2113 
L 3513 0 
L 2938 0 
L 2938 2094 
Q 2938 2591 2744 2837 
Q 2550 3084 2163 3084 
Q 1697 3084 1428 2787 
Q 1159 2491 1159 1978 
L 1159 0 
L 581 0 
L 581 3500 
L 1159 3500 
L 1159 2956 
Q 1366 3272 1645 3428 
Q 1925 3584 2291 3584 
Q 2894 3584 3203 3211 
Q 3513 2838 3513 2113 
z
" transform="scale(0.015625)"/>
      <path id="DejaVuSans-50" d="M 1259 4147 
L 1259 2394 
L 2053 2394 
Q 2494 2394 2734 2622 
Q 2975 2850 2975 3272 
Q 2975 3691 2734 3919 
Q 2494 4147 2053 4147 
L 1259 4147 
z
M 628 4666 
L 2053 4666 
Q 2838 4666 3239 4311 
Q 3641 3956 3641 3272 
Q 3641 2581 3239 2228 
Q 2838 1875 2053 1875 
L 1259 1875 
L 1259 0 
L 628 0 
L 628 4666 
z
" transform="scale(0.015625)"/>
      <path id="DejaVuSans-32" d="M 1228 531 
L 3431 531 
L 3431 0 
L 469 0 
L 469 531 
Q 828 903 1448 1529 
Q 2069 2156 2228 2338 
Q 2531 2678 2651 2914 
Q 2772 3150 2772 3378 
Q 2772 3750 2511 3984 
Q 2250 4219 1831 4219 
Q 1534 4219 1204 4116 
Q 875 4013 500 3803 
L 500 4441 
Q 881 4594 1212 4672 
Q 1544 4750 1819 4750 
Q 2544 4750 2975 4387 
Q 3406 4025 3406 3419 
Q 3406 3131 3298 2873 
Q 3191 2616 2906 2266 
Q 2828 2175 2409 1742 
Q 1991 1309 1228 531 
z
" transform="scale(0.015625)"/>
     </defs>
     <use xlink:href="#DejaVuSans-52"/>
     <use xlink:href="#DejaVuSans-61" transform="translate(67.232422 0)"/>
     <use xlink:href="#DejaVuSans-63" transform="translate(128.511719 0)"/>
     <use xlink:href="#DejaVuSans-65" transform="translate(183.492188 0)"/>
     <use xlink:href="#DejaVuSans-20" transform="translate(245.015625 0)"/>
     <use xlink:href="#DejaVuSans-2f" transform="translate(276.802734 0)"/>
     <use xlink:href="#DejaVuSans-20" transform="translate(310.494141 0)"/>
     <use xlink:href="#DejaVuSans-53" transform="translate(342.28125 0)"/>
     <use xlink:href="#DejaVuSans-70" transform="translate(405.757812 0)"/>
     <use xlink:href="#DejaVuSans-72" transform="translate(469.234375 0)"/>
     <use xlink:href="#DejaVuSans-69" transform="translate(510.347656 0)"/>
     <use xlink:href="#DejaVuSans-6e" transform="translate(538.130859 0)"/>
     <use xlink:href="#DejaVuSans-74" transform="translate(601.509766 0)"/>
     <use xlink:href="#DejaVuSans-20" transform="translate(640.71875 0)"/>
     <use xlink:href="#DejaVuSans-2f" transform="translate(672.505859 0)"/>
     <use xlink:href="#DejaVuSans-20" transform="translate(706.197266 0)"/>
     <use xlink:href="#DejaVuSans-46" transform="translate(737.984375 0)"/>
     <use xlink:href="#DejaVuSans-50" transform="translate(795.503906 0)"/>
     <use xlink:href="#DejaVuSans-32" transform="translate(855.806641 0)"/>
    </g>
   </g>
   <g id="patch_3">
    <path d="M 122.923055 169.178925 
Q 126.540945 169.178925 129.040801 169.178925 
" style="fill: none; stroke: #4c566a; stroke-linecap: round"/>
    <path d="M 125.040801 167.178925 
L 129.040801 169.178925 
L 125.040801 171.178925 
" style="fill: none; stroke: #4c566a; stroke-linecap: round"/>
   </g>
   <g id="text_3">
    <g id="patch_4">
     <path d="M 137.122938 179.517988 
L 236.701063 179.517988 
Q 242.201063 179.517988 242.201063 174.017988 
L 242.201063 164.339863 
Q 242.201063 158.839863 236.701063 158.839863 
L 137.122938 158.839863 
Q 131.622938 158.839863 131.622938 164.339863 
L 131.622938 174.017988 
Q 131.622938 179.517988 137.122938 179.517988 
z
" style="fill: #eaf2f8; stroke: #4c566a; stroke-linejoin: miter"/>
    </g>
    <!-- Simulation inputs -->
    <g transform="translate(137.122938 171.9383) scale(0.1 -0.1)">
     <defs>
      <path id="DejaVuSans-Bold-53" d="M 3834 4519 
L 3834 3531 
Q 3450 3703 3084 3790 
Q 2719 3878 2394 3878 
Q 1963 3878 1756 3759 
Q 1550 3641 1550 3391 
Q 1550 3203 1689 3098 
Q 1828 2994 2194 2919 
L 2706 2816 
Q 3484 2659 3812 2340 
Q 4141 2022 4141 1434 
Q 4141 663 3683 286 
Q 3225 -91 2284 -91 
Q 1841 -91 1394 -6 
Q 947 78 500 244 
L 500 1259 
Q 947 1022 1364 901 
Q 1781 781 2169 781 
Q 2563 781 2772 912 
Q 2981 1044 2981 1288 
Q 2981 1506 2839 1625 
Q 2697 1744 2272 1838 
L 1806 1941 
Q 1106 2091 782 2419 
Q 459 2747 459 3303 
Q 459 4000 909 4375 
Q 1359 4750 2203 4750 
Q 2588 4750 2994 4692 
Q 3400 4634 3834 4519 
z
" transform="scale(0.015625)"/>
      <path id="DejaVuSans-Bold-6d" d="M 3781 2919 
Q 3994 3244 4286 3414 
Q 4578 3584 4928 3584 
Q 5531 3584 5847 3212 
Q 6163 2841 6163 2131 
L 6163 0 
L 5038 0 
L 5038 1825 
Q 5041 1866 5042 1909 
Q 5044 1953 5044 2034 
Q 5044 2406 4934 2573 
Q 4825 2741 4581 2741 
Q 4263 2741 4089 2478 
Q 3916 2216 3909 1719 
L 3909 0 
L 2784 0 
L 2784 1825 
Q 2784 2406 2684 2573 
Q 2584 2741 2328 2741 
Q 2006 2741 1831 2477 
Q 1656 2213 1656 1722 
L 1656 0 
L 531 0 
L 531 3500 
L 1656 3500 
L 1656 2988 
Q 1863 3284 2130 3434 
Q 2397 3584 2719 3584 
Q 3081 3584 3359 3409 
Q 3638 3234 3781 2919 
z
" transform="scale(0.015625)"/>
      <path id="DejaVuSans-Bold-6c" d="M 538 4863 
L 1656 4863 
L 1656 0 
L 538 0 
L 538 4863 
z
" transform="scale(0.015625)"/>
      <path id="DejaVuSans-Bold-6f" d="M 2203 2784 
Q 1831 2784 1636 2517 
Q 1441 2250 1441 1747 
Q 1441 1244 1636 976 
Q 1831 709 2203 709 
Q 2569 709 2762 976 
Q 2956 1244 2956 1747 
Q 2956 2250 2762 2517 
Q 2569 2784 2203 2784 
z
M 2203 3584 
Q 3106 3584 3614 3096 
Q 4122 2609 4122 1747 
Q 4122 884 3614 396 
Q 3106 -91 2203 -91 
Q 1297 -91 786 396 
Q 275 884 275 1747 
Q 275 2609 786 3096 
Q 1297 3584 2203 3584 
z
" transform="scale(0.015625)"/>
     </defs>
     <use xlink:href="#DejaVuSans-Bold-53"/>
     <use xlink:href="#DejaVuSans-Bold-69" transform="translate(72.021484 0)"/>
     <use xlink:href="#DejaVuSans-Bold-6d" transform="translate(106.298828 0)"/>
     <use xlink:href="#DejaVuSans-Bold-75" transform="translate(210.498047 0)"/>
     <use xlink:href="#DejaVuSans-Bold-6c" transform="translate(281.689453 0)"/>
     <use xlink:href="#DejaVuSans-Bold-61" transform="translate(315.966797 0)"/>
     <use xlink:href="#DejaVuSans-Bold-74" transform="translate(383.447266 0)"/>
     <use xlink:href="#DejaVuSans-Bold-69" transform="translate(431.25 0)"/>
     <use xlink:href="#DejaVuSans-Bold-6f" transform="translate(465.527344 0)"/>
     <use xlink:href="#DejaVuSans-Bold-6e" transform="translate(534.228516 0)"/>
     <use xlink:href="#DejaVuSans-Bold-20" transform="translate(605.419922 0)"/>
     <use xlink:href="#DejaVuSans-Bold-69" transform="translate(640.234375 0)"/>
     <use xlink:href="#DejaVuSans-Bold-6e" transform="translate(674.511719 0)"/>
     <use xlink:href="#DejaVuSans-Bold-70" transform="translate(745.703125 0)"/>
     <use xlink:href="#DejaVuSans-Bold-75" transform="translate(817.285156 0)"/>
     <use xlink:href="#DejaVuSans-Bold-74" transform="translate(888.476562 0)"/>
     <use xlink:href="#DejaVuSans-Bold-73" transform="translate(936.279297 0)"/>
    </g>
   </g>
   <g id="text_4">
    <!-- Open-Meteo -->
    <g transform="translate(162.395125 226.4381) scale(0.08 -0.08)">
     <defs>
      <path id="DejaVuSans-4f" d="M 2522 4238 
Q 1834 4238 1429 3725 
Q 1025 3213 1025 2328 
Q 1025 1447 1429 934 
Q 1834 422 2522 422 
Q 3209 422 3611 934 
Q 4013 1447 4013 2328 
Q 4013 3213 3611 3725 
Q 3209 4238 2522 4238 
z
M 2522 4750 
Q 3503 4750 4090 4092 
Q 4678 3434 4678 2328 
Q 4678 1225 4090 567 
Q 3503 -91 2522 -91 
Q 1538 -91 948 565 
Q 359 1222 359 2328 
Q 359 3434 948 4092 
Q 1538 4750 2522 4750 
z
" transform="scale(0.015625)"/>
      <path id="DejaVuSans-2d" d="M 313 2009 
L 1997 2009 
L 1997 1497 
L 313 1497 
L 313 2009 
z
" transform="scale(0.015625)"/>
      <path id="DejaVuSans-4d" d="M 628 4666 
L 1569 4666 
L 2759 1491 
L 3956 4666 
L 4897 4666 
L 4897 0 
L 4281 0 
L 4281 4097 
L 3078 897 
L 2444 897 
L 1241 4097 
L 1241 0 
L 628 0 
L 628 4666 
z
" transform="scale(0.015625)"/>
      <path id="DejaVuSans-6f" d="M 1959 3097 
Q 1497 3097 1228 2736 
Q 959 2375 959 1747 
Q 959 1119 1226 758 
Q 1494 397 1959 397 
Q 2419 397 2687 759 
Q 2956 1122 2956 1747 
Q 2956 2369 2687 2733 
Q 2419 3097 1959 3097 
z
M 1959 3584 
Q 2709 3584 3137 3096 
Q 3566 2609 3566 1747 
Q 3566 888 3137 398 
Q 2709 -91 1959 -91 
Q 1206 -91 779 398 
Q 353 888 353 1747 
Q 353 2609 779 3096 
Q 1206 3584 1959 3584 
z
" transform="scale(0.015625)"/>
     </defs>
     <use xlink:href="#DejaVuSans-4f"/>
     <use xlink:href="#DejaVuSans-70" transform="translate(78.710938 0)"/>
     <use xlink:href="#DejaVuSans-65" transform="translate(142.1875 0)"/>
     <use xlink:href="#DejaVuSans-6e" transform="translate(203.710938 0)"/>
     <use xlink:href="#DejaVuSans-2d" transform="translate(267.089844 0)"/>
     <use xlink:href="#DejaVuSans-4d" transform="translate(303.173828 0)"/>
     <use xlink:href="#DejaVuSans-65" transform="translate(389.453125 0)"/>
     <use xlink:href="#DejaVuSans-74" transform="translate(450.976562 0)"/>
     <use xlink:href="#DejaVuSans-65" transform="translate(490.185547 0)"/>
     <use xlink:href="#DejaVuSans-6f" transform="translate(551.708984 0)"/>
    </g>
    <!-- weather + race state -->
    <g transform="translate(144.465125 235.39635) scale(0.08 -0.08)">
     <defs>
      <path id="DejaVuSans-77" d="M 269 3500 
L 844 3500 
L 1563 769 
L 2278 3500 
L 2956 3500 
L 3675 769 
L 4391 3500 
L 4966 3500 
L 4050 0 
L 3372 0 
L 2619 2869 
L 1863 0 
L 1184 0 
L 269 3500 
z
" transform="scale(0.015625)"/>
      <path id="DejaVuSans-68" d="M 3513 2113 
L 3513 0 
L 2938 0 
L 2938 2094 
Q 2938 2591 2744 2837 
Q 2550 3084 2163 3084 
Q 1697 3084 1428 2787 
Q 1159 2491 1159 1978 
L 1159 0 
L 581 0 
L 581 4863 
L 1159 4863 
L 1159 2956 
Q 1366 3272 1645 3428 
Q 1925 3584 2291 3584 
Q 2894 3584 3203 3211 
Q 3513 2838 3513 2113 
z
" transform="scale(0.015625)"/>
      <path id="DejaVuSans-2b" d="M 2944 4013 
L 2944 2272 
L 4684 2272 
L 4684 1741 
L 2944 1741 
L 2944 0 
L 2419 0 
L 2419 1741 
L 678 1741 
L 678 2272 
L 2419 2272 
L 2419 4013 
L 2944 4013 
z
" transform="scale(0.015625)"/>
     </defs>
     <use xlink:href="#DejaVuSans-77"/>
     <use xlink:href="#DejaVuSans-65" transform="translate(81.787109 0)"/>
     <use xlink:href="#DejaVuSans-61" transform="translate(143.310547 0)"/>
     <use xlink:href="#DejaVuSans-74" transform="translate(204.589844 0)"/>
     <use xlink:href="#DejaVuSans-68" transform="translate(243.798828 0)"/>
     <use xlink:href="#DejaVuSans-65" transform="translate(307.177734 0)"/>
     <use xlink:href="#DejaVuSans-72" transform="translate(368.701172 0)"/>
     <use xlink:href="#DejaVuSans-20" transform="translate(409.814453 0)"/>
     <use xlink:href="#DejaVuSans-2b" transform="translate(441.601562 0)"/>
     <use xlink:href="#DejaVuSans-20" transform="translate(525.390625 0)"/>
     <use xlink:href="#DejaVuSans-72" transform="translate(557.177734 0)"/>
     <use xlink:href="#DejaVuSans-61" transform="translate(598.291016 0)"/>
     <use xlink:href="#DejaVuSans-63" transform="translate(659.570312 0)"/>
     <use xlink:href="#DejaVuSans-65" transform="translate(714.550781 0)"/>
     <use xlink:href="#DejaVuSans-20" transform="translate(776.074219 0)"/>
     <use xlink:href="#DejaVuSans-73" transform="translate(807.861328 0)"/>
     <use xlink:href="#DejaVuSans-74" transform="translate(859.960938 0)"/>
     <use xlink:href="#DejaVuSans-61" transform="translate(899.169922 0)"/>
     <use xlink:href="#DejaVuSans-74" transform="translate(960.449219 0)"/>
     <use xlink:href="#DejaVuSans-65" transform="translate(999.658203 0)"/>
    </g>
   </g>
   <g id="patch_5">
    <path d="M 243.667055 169.178925 
Q 247.284945 169.178925 249.784801 169.178925 
" style="fill: none; stroke: #4c566a; stroke-linecap: round"/>
    <path d="M 245.784801 167.178925 
L 249.784801 169.178925 
L 245.784801 171.178925 
" style="fill: none; stroke: #4c566a; stroke-linecap: round"/>
   </g>
   <g id="text_5">
    <g id="patch_6">
     <path d="M 285.595844 179.517988 
L 329.716156 179.517988 
Q 335.216156 179.517988 335.216156 174.017988 
L 335.216156 164.339863 
Q 335.216156 158.839863 329.716156 158.839863 
L 285.595844 158.839863 
Q 280.095844 158.839863 280.095844 164.339863 
L 280.095844 174.017988 
Q 280.095844 179.517988 285.595844 179.517988 
z
" style="fill: #eaf2f8; stroke: #4c566a; stroke-linejoin: miter"/>
    </g>
    <!-- Context -->
    <g transform="translate(285.595844 171.9383) scale(0.1 -0.1)">
     <defs>
      <path id="DejaVuSans-Bold-43" d="M 4288 256 
Q 3956 84 3597 -3 
Q 3238 -91 2847 -91 
Q 1681 -91 1000 561 
Q 319 1213 319 2328 
Q 319 3447 1000 4098 
Q 1681 4750 2847 4750 
Q 3238 4750 3597 4662 
Q 3956 4575 4288 4403 
L 4288 3438 
Q 3953 3666 3628 3772 
Q 3303 3878 2944 3878 
Q 2300 3878 1931 3465 
Q 1563 3053 1563 2328 
Q 1563 1606 1931 1193 
Q 2300 781 2944 781 
Q 3303 781 3628 887 
Q 3953 994 4288 1222 
L 4288 256 
z
" transform="scale(0.015625)"/>
      <path id="DejaVuSans-Bold-65" d="M 4031 1759 
L 4031 1441 
L 1416 1441 
Q 1456 1047 1700 850 
Q 1944 653 2381 653 
Q 2734 653 3104 758 
Q 3475 863 3866 1075 
L 3866 213 
Q 3469 63 3072 -14 
Q 2675 -91 2278 -91 
Q 1328 -91 801 392 
Q 275 875 275 1747 
Q 275 2603 792 3093 
Q 1309 3584 2216 3584 
Q 3041 3584 3536 3087 
Q 4031 2591 4031 1759 
z
M 2881 2131 
Q 2881 2450 2695 2645 
Q 2509 2841 2209 2841 
Q 1884 2841 1681 2658 
Q 1478 2475 1428 2131 
L 2881 2131 
z
" transform="scale(0.015625)"/>
      <path id="DejaVuSans-Bold-78" d="M 1422 1791 
L 159 3500 
L 1344 3500 
L 2059 2463 
L 2784 3500 
L 3969 3500 
L 2706 1797 
L 4031 0 
L 2847 0 
L 2059 1106 
L 1281 0 
L 97 0 
L 1422 1791 
z
" transform="scale(0.015625)"/>
     </defs>
     <use xlink:href="#DejaVuSans-Bold-43"/>
     <use xlink:href="#DejaVuSans-Bold-6f" transform="translate(73.388672 0)"/>
     <use xlink:href="#DejaVuSans-Bold-6e" transform="translate(142.089844 0)"/>
     <use xlink:href="#DejaVuSans-Bold-74" transform="translate(213.28125 0)"/>
     <use xlink:href="#DejaVuSans-Bold-65" transform="translate(261.083984 0)"/>
     <use xlink:href="#DejaVuSans-Bold-78" transform="translate(328.90625 0)"/>
     <use xlink:href="#DejaVuSans-Bold-74" transform="translate(393.408203 0)"/>
    </g>
   </g>
   <g id="text_6">
    <!-- Pirelli + Mercedes -->
    <g transform="translate(271.76725 226.4381) scale(0.08 -0.08)">
     <defs>
      <path id="DejaVuSans-6c" d="M 603 4863 
L 1178 4863 
L 1178 0 
L 603 0 
L 603 4863 
z
" transform="scale(0.015625)"/>
      <path id="DejaVuSans-64" d="M 2906 2969 
L 2906 4863 
L 3481 4863 
L 3481 0 
L 2906 0 
L 2906 525 
Q 2725 213 2448 61 
Q 2172 -91 1784 -91 
Q 1150 -91 751 415 
Q 353 922 353 1747 
Q 353 2572 751 3078 
Q 1150 3584 1784 3584 
Q 2172 3584 2448 3432 
Q 2725 3281 2906 2969 
z
M 947 1747 
Q 947 1113 1208 752 
Q 1469 391 1925 391 
Q 2381 391 2643 752 
Q 2906 1113 2906 1747 
Q 2906 2381 2643 2742 
Q 2381 3103 1925 3103 
Q 1469 3103 1208 2742 
Q 947 2381 947 1747 
z
" transform="scale(0.015625)"/>
     </defs>
     <use xlink:href="#DejaVuSans-50"/>
     <use xlink:href="#DejaVuSans-69" transform="translate(58.052734 0)"/>
     <use xlink:href="#DejaVuSans-72" transform="translate(85.835938 0)"/>
     <use xlink:href="#DejaVuSans-65" transform="translate(124.699219 0)"/>
     <use xlink:href="#DejaVuSans-6c" transform="translate(186.222656 0)"/>
     <use xlink:href="#DejaVuSans-6c" transform="translate(214.005859 0)"/>
     <use xlink:href="#DejaVuSans-69" transform="translate(241.789062 0)"/>
     <use xlink:href="#DejaVuSans-20" transform="translate(269.572266 0)"/>
     <use xlink:href="#DejaVuSans-2b" transform="translate(301.359375 0)"/>
     <use xlink:href="#DejaVuSans-20" transform="translate(385.148438 0)"/>
     <use xlink:href="#DejaVuSans-4d" transform="translate(416.935547 0)"/>
     <use xlink:href="#DejaVuSans-65" transform="translate(503.214844 0)"/>
     <use xlink:href="#DejaVuSans-72" transform="translate(564.738281 0)"/>
     <use xlink:href="#DejaVuSans-63" transform="translate(603.601562 0)"/>
     <use xlink:href="#DejaVuSans-65" transform="translate(658.582031 0)"/>
     <use xlink:href="#DejaVuSans-64" transform="translate(720.105469 0)"/>
     <use xlink:href="#DejaVuSans-65" transform="translate(783.582031 0)"/>
     <use xlink:href="#DejaVuSans-73" transform="translate(845.105469 0)"/>
    </g>
    <!-- circuit descriptors -->
    <g transform="translate(271.7835 235.39635) scale(0.08 -0.08)">
     <defs>
      <path id="DejaVuSans-75" d="M 544 1381 
L 544 3500 
L 1119 3500 
L 1119 1403 
Q 1119 906 1312 657 
Q 1506 409 1894 409 
Q 2359 409 2629 706 
Q 2900 1003 2900 1516 
L 2900 3500 
L 3475 3500 
L 3475 0 
L 2900 0 
L 2900 538 
Q 2691 219 2414 64 
Q 2138 -91 1772 -91 
Q 1169 -91 856 284 
Q 544 659 544 1381 
z
M 1991 3584 
L 1991 3584 
z
" transform="scale(0.015625)"/>
     </defs>
     <use xlink:href="#DejaVuSans-63"/>
     <use xlink:href="#DejaVuSans-69" transform="translate(54.980469 0)"/>
     <use xlink:href="#DejaVuSans-72" transform="translate(82.763672 0)"/>
     <use xlink:href="#DejaVuSans-63" transform="translate(121.626953 0)"/>
     <use xlink:href="#DejaVuSans-75" transform="translate(176.607422 0)"/>
     <use xlink:href="#DejaVuSans-69" transform="translate(239.986328 0)"/>
     <use xlink:href="#DejaVuSans-74" transform="translate(267.769531 0)"/>
     <use xlink:href="#DejaVuSans-20" transform="translate(306.978516 0)"/>
     <use xlink:href="#DejaVuSans-64" transform="translate(338.765625 0)"/>
     <use xlink:href="#DejaVuSans-65" transform="translate(402.242188 0)"/>
     <use xlink:href="#DejaVuSans-73" transform="translate(463.765625 0)"/>
     <use xlink:href="#DejaVuSans-63" transform="translate(515.865234 0)"/>
     <use xlink:href="#DejaVuSans-72" transform="translate(570.845703 0)"/>
     <use xlink:href="#DejaVuSans-69" transform="translate(611.958984 0)"/>
     <use xlink:href="#DejaVuSans-70" transform="translate(639.742188 0)"/>
     <use xlink:href="#DejaVuSans-74" transform="translate(703.21875 0)"/>
     <use xlink:href="#DejaVuSans-6f" transform="translate(742.427734 0)"/>
     <use xlink:href="#DejaVuSans-72" transform="translate(803.609375 0)"/>
     <use xlink:href="#DejaVuSans-73" transform="translate(844.722656 0)"/>
    </g>
   </g>
   <g id="patch_7">
    <path d="M 364.411055 169.178925 
Q 368.028945 169.178925 370.528801 169.178925 
" style="fill: none; stroke: #4c566a; stroke-linecap: round"/>
    <path d="M 366.528801 167.178925 
L 370.528801 169.178925 
L 366.528801 171.178925 
" style="fill: none; stroke: #4c566a; stroke-linecap: round"/>
   </g>
   <g id="text_7">
    <g id="patch_8">
     <path d="M 388.239062 179.55705 
L 468.560938 179.55705 
Q 474.060938 179.55705 474.060938 174.05705 
L 474.060938 164.3008 
Q 474.060938 158.8008 468.560938 158.8008 
L 388.239062 158.8008 
Q 382.739062 158.8008 382.739062 164.3008 
L 382.739062 174.05705 
Q 382.739062 179.55705 388.239062 179.55705 
z
" style="fill: #eaf2f8; stroke: #4c566a; stroke-linejoin: miter"/>
    </g>
    <!-- Preprocessing -->
    <g transform="translate(388.239062 171.899237) scale(0.1 -0.1)">
     <defs>
      <path id="DejaVuSans-Bold-50" d="M 588 4666 
L 2584 4666 
Q 3475 4666 3951 4270 
Q 4428 3875 4428 3144 
Q 4428 2409 3951 2014 
Q 3475 1619 2584 1619 
L 1791 1619 
L 1791 0 
L 588 0 
L 588 4666 
z
M 1791 3794 
L 1791 2491 
L 2456 2491 
Q 2806 2491 2997 2661 
Q 3188 2831 3188 3144 
Q 3188 3456 2997 3625 
Q 2806 3794 2456 3794 
L 1791 3794 
z
" transform="scale(0.015625)"/>
      <path id="DejaVuSans-Bold-63" d="M 3366 3391 
L 3366 2478 
Q 3138 2634 2908 2709 
Q 2678 2784 2431 2784 
Q 1963 2784 1702 2511 
Q 1441 2238 1441 1747 
Q 1441 1256 1702 982 
Q 1963 709 2431 709 
Q 2694 709 2930 787 
Q 3166 866 3366 1019 
L 3366 103 
Q 3103 6 2833 -42 
Q 2563 -91 2291 -91 
Q 1344 -91 809 395 
Q 275 881 275 1747 
Q 275 2613 809 3098 
Q 1344 3584 2291 3584 
Q 2566 3584 2833 3536 
Q 3100 3488 3366 3391 
z
" transform="scale(0.015625)"/>
     </defs>
     <use xlink:href="#DejaVuSans-Bold-50"/>
     <use xlink:href="#DejaVuSans-Bold-72" transform="translate(73.291016 0)"/>
     <use xlink:href="#DejaVuSans-Bold-65" transform="translate(122.607422 0)"/>
     <use xlink:href="#DejaVuSans-Bold-70" transform="translate(190.429688 0)"/>
     <use xlink:href="#DejaVuSans-Bold-72" transform="translate(262.011719 0)"/>
     <use xlink:href="#DejaVuSans-Bold-6f" transform="translate(311.328125 0)"/>
     <use xlink:href="#DejaVuSans-Bold-63" transform="translate(380.029297 0)"/>
     <use xlink:href="#DejaVuSans-Bold-65" transform="translate(439.306641 0)"/>
     <use xlink:href="#DejaVuSans-Bold-73" transform="translate(507.128906 0)"/>
     <use xlink:href="#DejaVuSans-Bold-73" transform="translate(566.650391 0)"/>
     <use xlink:href="#DejaVuSans-Bold-69" transform="translate(626.171875 0)"/>
     <use xlink:href="#DejaVuSans-Bold-6e" transform="translate(660.449219 0)"/>
     <use xlink:href="#DejaVuSans-Bold-67" transform="translate(731.640625 0)"/>
    </g>
   </g>
   <g id="text_8">
    <!-- filtering + leakage -->
    <g transform="translate(391.29375 226.4381) scale(0.08 -0.08)">
     <defs>
      <path id="DejaVuSans-66" d="M 2375 4863 
L 2375 4384 
L 1825 4384 
Q 1516 4384 1395 4259 
Q 1275 4134 1275 3809 
L 1275 3500 
L 2222 3500 
L 2222 3053 
L 1275 3053 
L 1275 0 
L 697 0 
L 697 3053 
L 147 3053 
L 147 3500 
L 697 3500 
L 697 3744 
Q 697 4328 969 4595 
Q 1241 4863 1831 4863 
L 2375 4863 
z
" transform="scale(0.015625)"/>
      <path id="DejaVuSans-67" d="M 2906 1791 
Q 2906 2416 2648 2759 
Q 2391 3103 1925 3103 
Q 1463 3103 1205 2759 
Q 947 2416 947 1791 
Q 947 1169 1205 825 
Q 1463 481 1925 481 
Q 2391 481 2648 825 
Q 2906 1169 2906 1791 
z
M 3481 434 
Q 3481 -459 3084 -895 
Q 2688 -1331 1869 -1331 
Q 1566 -1331 1297 -1286 
Q 1028 -1241 775 -1147 
L 775 -588 
Q 1028 -725 1275 -790 
Q 1522 -856 1778 -856 
Q 2344 -856 2625 -561 
Q 2906 -266 2906 331 
L 2906 616 
Q 2728 306 2450 153 
Q 2172 0 1784 0 
Q 1141 0 747 490 
Q 353 981 353 1791 
Q 353 2603 747 3093 
Q 1141 3584 1784 3584 
Q 2172 3584 2450 3431 
Q 2728 3278 2906 2969 
L 2906 3500 
L 3481 3500 
L 3481 434 
z
" transform="scale(0.015625)"/>
      <path id="DejaVuSans-6b" d="M 581 4863 
L 1159 4863 
L 1159 1991 
L 2875 3500 
L 3609 3500 
L 1753 1863 
L 3688 0 
L 2938 0 
L 1159 1709 
L 1159 0 
L 581 0 
L 581 4863 
z
" transform="scale(0.015625)"/>
     </defs>
     <use xlink:href="#DejaVuSans-66"/>
     <use xlink:href="#DejaVuSans-69" transform="translate(35.205078 0)"/>
     <use xlink:href="#DejaVuSans-6c" transform="translate(62.988281 0)"/>
     <use xlink:href="#DejaVuSans-74" transform="translate(90.771484 0)"/>
     <use xlink:href="#DejaVuSans-65" transform="translate(129.980469 0)"/>
     <use xlink:href="#DejaVuSans-72" transform="translate(191.503906 0)"/>
     <use xlink:href="#DejaVuSans-69" transform="translate(232.617188 0)"/>
     <use xlink:href="#DejaVuSans-6e" transform="translate(260.400391 0)"/>
     <use xlink:href="#DejaVuSans-67" transform="translate(323.779297 0)"/>
     <use xlink:href="#DejaVuSans-20" transform="translate(387.255859 0)"/>
     <use xlink:href="#DejaVuSans-2b" transform="translate(419.042969 0)"/>
     <use xlink:href="#DejaVuSans-20" transform="translate(502.832031 0)"/>
     <use xlink:href="#DejaVuSans-6c" transform="translate(534.619141 0)"/>
     <use xlink:href="#DejaVuSans-65" transform="translate(562.402344 0)"/>
     <use xlink:href="#DejaVuSans-61" transform="translate(623.925781 0)"/>
     <use xlink:href="#DejaVuSans-6b" transform="translate(685.205078 0)"/>
     <use xlink:href="#DejaVuSans-61" transform="translate(741.365234 0)"/>
     <use xlink:href="#DejaVuSans-67" transform="translate(802.644531 0)"/>
     <use xlink:href="#DejaVuSans-65" transform="translate(866.121094 0)"/>
    </g>
    <!-- controls -->
    <g transform="translate(412.453125 235.39635) scale(0.08 -0.08)">
     <use xlink:href="#DejaVuSans-63"/>
     <use xlink:href="#DejaVuSans-6f" transform="translate(54.980469 0)"/>
     <use xlink:href="#DejaVuSans-6e" transform="translate(116.162109 0)"/>
     <use xlink:href="#DejaVuSans-74" transform="translate(179.541016 0)"/>
     <use xlink:href="#DejaVuSans-72" transform="translate(218.75 0)"/>
     <use xlink:href="#DejaVuSans-6f" transform="translate(257.613281 0)"/>
     <use xlink:href="#DejaVuSans-6c" transform="translate(318.794922 0)"/>
     <use xlink:href="#DejaVuSans-73" transform="translate(346.578125 0)"/>
    </g>
   </g>
   <g id="patch_9">
    <path d="M 485.155055 169.178925 
Q 488.772945 169.178925 491.272801 169.178925 
" style="fill: none; stroke: #4c566a; stroke-linecap: round"/>
    <path d="M 487.272801 167.178925 
L 491.272801 169.178925 
L 487.272801 171.178925 
" style="fill: none; stroke: #4c566a; stroke-linecap: round"/>
   </g>
   <g id="text_9">
    <g id="patch_10">
     <path d="M 507.126813 179.517988 
L 591.161188 179.517988 
Q 596.661188 179.517988 596.661188 174.017988 
L 596.661188 164.339863 
Q 596.661188 158.839863 591.161188 158.839863 
L 507.126813 158.839863 
Q 501.626813 158.839863 501.626813 164.339863 
L 501.626813 174.017988 
Q 501.626813 179.517988 507.126813 179.517988 
z
" style="fill: #fcefe3; stroke: #4c566a; stroke-linejoin: miter"/>
    </g>
    <!-- Learned model -->
    <g transform="translate(507.126813 171.9383) scale(0.1 -0.1)">
     <defs>
      <path id="DejaVuSans-Bold-4c" d="M 588 4666 
L 1791 4666 
L 1791 909 
L 3903 909 
L 3903 0 
L 588 0 
L 588 4666 
z
" transform="scale(0.015625)"/>
      <path id="DejaVuSans-Bold-64" d="M 2919 2988 
L 2919 4863 
L 4044 4863 
L 4044 0 
L 2919 0 
L 2919 506 
Q 2688 197 2409 53 
Q 2131 -91 1766 -91 
Q 1119 -91 703 423 
Q 288 938 288 1747 
Q 288 2556 703 3070 
Q 1119 3584 1766 3584 
Q 2128 3584 2408 3439 
Q 2688 3294 2919 2988 
z
M 2181 722 
Q 2541 722 2730 984 
Q 2919 1247 2919 1747 
Q 2919 2247 2730 2509 
Q 2541 2772 2181 2772 
Q 1825 2772 1636 2509 
Q 1447 2247 1447 1747 
Q 1447 1247 1636 984 
Q 1825 722 2181 722 
z
" transform="scale(0.015625)"/>
     </defs>
     <use xlink:href="#DejaVuSans-Bold-4c"/>
     <use xlink:href="#DejaVuSans-Bold-65" transform="translate(63.720703 0)"/>
     <use xlink:href="#DejaVuSans-Bold-61" transform="translate(131.542969 0)"/>
     <use xlink:href="#DejaVuSans-Bold-72" transform="translate(199.023438 0)"/>
     <use xlink:href="#DejaVuSans-Bold-6e" transform="translate(248.339844 0)"/>
     <use xlink:href="#DejaVuSans-Bold-65" transform="translate(319.53125 0)"/>
     <use xlink:href="#DejaVuSans-Bold-64" transform="translate(387.353516 0)"/>
     <use xlink:href="#DejaVuSans-Bold-20" transform="translate(458.935547 0)"/>
     <use xlink:href="#DejaVuSans-Bold-6d" transform="translate(493.75 0)"/>
     <use xlink:href="#DejaVuSans-Bold-6f" transform="translate(597.949219 0)"/>
     <use xlink:href="#DejaVuSans-Bold-64" transform="translate(666.650391 0)"/>
     <use xlink:href="#DejaVuSans-Bold-65" transform="translate(738.232422 0)"/>
     <use xlink:href="#DejaVuSans-Bold-6c" transform="translate(806.054688 0)"/>
    </g>
   </g>
   <g id="text_10">
    <!-- era-specific HGB -->
    <g transform="translate(515.907125 226.4381) scale(0.08 -0.08)">
     <defs>
      <path id="DejaVuSans-48" d="M 628 4666 
L 1259 4666 
L 1259 2753 
L 3553 2753 
L 3553 4666 
L 4184 4666 
L 4184 0 
L 3553 0 
L 3553 2222 
L 1259 2222 
L 1259 0 
L 628 0 
L 628 4666 
z
" transform="scale(0.015625)"/>
      <path id="DejaVuSans-47" d="M 3809 666 
L 3809 1919 
L 2778 1919 
L 2778 2438 
L 4434 2438 
L 4434 434 
Q 4069 175 3628 42 
Q 3188 -91 2688 -91 
Q 1594 -91 976 548 
Q 359 1188 359 2328 
Q 359 3472 976 4111 
Q 1594 4750 2688 4750 
Q 3144 4750 3555 4637 
Q 3966 4525 4313 4306 
L 4313 3634 
Q 3963 3931 3569 4081 
Q 3175 4231 2741 4231 
Q 1884 4231 1454 3753 
Q 1025 3275 1025 2328 
Q 1025 1384 1454 906 
Q 1884 428 2741 428 
Q 3075 428 3337 486 
Q 3600 544 3809 666 
z
" transform="scale(0.015625)"/>
      <path id="DejaVuSans-42" d="M 1259 2228 
L 1259 519 
L 2272 519 
Q 2781 519 3026 730 
Q 3272 941 3272 1375 
Q 3272 1813 3026 2020 
Q 2781 2228 2272 2228 
L 1259 2228 
z
M 1259 4147 
L 1259 2741 
L 2194 2741 
Q 2656 2741 2882 2914 
Q 3109 3088 3109 3444 
Q 3109 3797 2882 3972 
Q 2656 4147 2194 4147 
L 1259 4147 
z
M 628 4666 
L 2241 4666 
Q 2963 4666 3353 4366 
Q 3744 4066 3744 3513 
Q 3744 3084 3544 2831 
Q 3344 2578 2956 2516 
Q 3422 2416 3680 2098 
Q 3938 1781 3938 1306 
Q 3938 681 3513 340 
Q 3088 0 2303 0 
L 628 0 
L 628 4666 
z
" transform="scale(0.015625)"/>
     </defs>
     <use xlink:href="#DejaVuSans-65"/>
     <use xlink:href="#DejaVuSans-72" transform="translate(61.523438 0)"/>
     <use xlink:href="#DejaVuSans-61" transform="translate(102.636719 0)"/>
     <use xlink:href="#DejaVuSans-2d" transform="translate(163.916016 0)"/>
     <use xlink:href="#DejaVuSans-73" transform="translate(200 0)"/>
     <use xlink:href="#DejaVuSans-70" transform="translate(252.099609 0)"/>
     <use xlink:href="#DejaVuSans-65" transform="translate(315.576172 0)"/>
     <use xlink:href="#DejaVuSans-63" transform="translate(377.099609 0)"/>
     <use xlink:href="#DejaVuSans-69" transform="translate(432.080078 0)"/>
     <use xlink:href="#DejaVuSans-66" transform="translate(459.863281 0)"/>
     <use xlink:href="#DejaVuSans-69" transform="translate(495.068359 0)"/>
     <use xlink:href="#DejaVuSans-63" transform="translate(522.851562 0)"/>
     <use xlink:href="#DejaVuSans-20" transform="translate(577.832031 0)"/>
     <use xlink:href="#DejaVuSans-48" transform="translate(609.619141 0)"/>
     <use xlink:href="#DejaVuSans-47" transform="translate(684.814453 0)"/>
     <use xlink:href="#DejaVuSans-42" transform="translate(762.304688 0)"/>
    </g>
    <!-- regression -->
    <g transform="translate(528.312125 235.39635) scale(0.08 -0.08)">
     <use xlink:href="#DejaVuSans-72"/>
     <use xlink:href="#DejaVuSans-65" transform="translate(38.863281 0)"/>
     <use xlink:href="#DejaVuSans-67" transform="translate(100.386719 0)"/>
     <use xlink:href="#DejaVuSans-72" transform="translate(163.863281 0)"/>
     <use xlink:href="#DejaVuSans-65" transform="translate(202.726562 0)"/>
     <use xlink:href="#DejaVuSans-73" transform="translate(264.25 0)"/>
     <use xlink:href="#DejaVuSans-73" transform="translate(316.349609 0)"/>
     <use xlink:href="#DejaVuSans-69" transform="translate(368.449219 0)"/>
     <use xlink:href="#DejaVuSans-6f" transform="translate(396.232422 0)"/>
     <use xlink:href="#DejaVuSans-6e" transform="translate(457.414062 0)"/>
    </g>
   </g>
   <g id="patch_11">
    <path d="M 605.899055 169.178925 
Q 609.516945 169.178925 612.016801 169.178925 
" style="fill: none; stroke: #4c566a; stroke-linecap: round"/>
    <path d="M 608.016801 167.178925 
L 612.016801 169.178925 
L 608.016801 171.178925 
" style="fill: none; stroke: #4c566a; stroke-linecap: round"/>
   </g>
   <g id="text_11">
    <g id="patch_12">
     <path d="M 624.708313 179.55705 
L 715.067688 179.55705 
Q 720.567688 179.55705 720.567688 174.05705 
L 720.567688 164.3008 
Q 720.567688 158.8008 715.067688 158.8008 
L 624.708313 158.8008 
Q 619.208313 158.8008 619.208313 164.3008 
L 619.208313 174.05705 
Q 619.208313 179.55705 624.708313 179.55705 
z
" style="fill: #fcefe3; stroke: #4c566a; stroke-linejoin: miter"/>
    </g>
    <!-- Post-processing -->
    <g transform="translate(624.708313 171.899237) scale(0.1 -0.1)">
     <defs>
      <path id="DejaVuSans-Bold-2d" d="M 347 2297 
L 2309 2297 
L 2309 1388 
L 347 1388 
L 347 2297 
z
" transform="scale(0.015625)"/>
     </defs>
     <use xlink:href="#DejaVuSans-Bold-50"/>
     <use xlink:href="#DejaVuSans-Bold-6f" transform="translate(73.291016 0)"/>
     <use xlink:href="#DejaVuSans-Bold-73" transform="translate(141.992188 0)"/>
     <use xlink:href="#DejaVuSans-Bold-74" transform="translate(201.513672 0)"/>
     <use xlink:href="#DejaVuSans-Bold-2d" transform="translate(249.316406 0)"/>
     <use xlink:href="#DejaVuSans-Bold-70" transform="translate(290.820312 0)"/>
     <use xlink:href="#DejaVuSans-Bold-72" transform="translate(362.402344 0)"/>
     <use xlink:href="#DejaVuSans-Bold-6f" transform="translate(411.71875 0)"/>
     <use xlink:href="#DejaVuSans-Bold-63" transform="translate(480.419922 0)"/>
     <use xlink:href="#DejaVuSans-Bold-65" transform="translate(539.697266 0)"/>
     <use xlink:href="#DejaVuSans-Bold-73" transform="translate(607.519531 0)"/>
     <use xlink:href="#DejaVuSans-Bold-73" transform="translate(667.041016 0)"/>
     <use xlink:href="#DejaVuSans-Bold-69" transform="translate(726.5625 0)"/>
     <use xlink:href="#DejaVuSans-Bold-6e" transform="translate(760.839844 0)"/>
     <use xlink:href="#DejaVuSans-Bold-67" transform="translate(832.03125 0)"/>
    </g>
   </g>
   <g id="text_12">
    <!-- degradation curves -->
    <g transform="translate(631.037375 226.4381) scale(0.08 -0.08)">
     <defs>
      <path id="DejaVuSans-76" d="M 191 3500 
L 800 3500 
L 1894 563 
L 2988 3500 
L 3597 3500 
L 2284 0 
L 1503 0 
L 191 3500 
z
" transform="scale(0.015625)"/>
     </defs>
     <use xlink:href="#DejaVuSans-64"/>
     <use xlink:href="#DejaVuSans-65" transform="translate(63.476562 0)"/>
     <use xlink:href="#DejaVuSans-67" transform="translate(125 0)"/>
     <use xlink:href="#DejaVuSans-72" transform="translate(188.476562 0)"/>
     <use xlink:href="#DejaVuSans-61" transform="translate(229.589844 0)"/>
     <use xlink:href="#DejaVuSans-64" transform="translate(290.869141 0)"/>
     <use xlink:href="#DejaVuSans-61" transform="translate(354.345703 0)"/>
     <use xlink:href="#DejaVuSans-74" transform="translate(415.625 0)"/>
     <use xlink:href="#DejaVuSans-69" transform="translate(454.833984 0)"/>
     <use xlink:href="#DejaVuSans-6f" transform="translate(482.617188 0)"/>
     <use xlink:href="#DejaVuSans-6e" transform="translate(543.798828 0)"/>
     <use xlink:href="#DejaVuSans-20" transform="translate(607.177734 0)"/>
     <use xlink:href="#DejaVuSans-63" transform="translate(638.964844 0)"/>
     <use xlink:href="#DejaVuSans-75" transform="translate(693.945312 0)"/>
     <use xlink:href="#DejaVuSans-72" transform="translate(757.324219 0)"/>
     <use xlink:href="#DejaVuSans-76" transform="translate(798.4375 0)"/>
     <use xlink:href="#DejaVuSans-65" transform="translate(857.617188 0)"/>
     <use xlink:href="#DejaVuSans-73" transform="translate(919.140625 0)"/>
    </g>
    <!-- cliff + useful life -->
    <g transform="translate(637.258 235.39635) scale(0.08 -0.08)">
     <use xlink:href="#DejaVuSans-63"/>
     <use xlink:href="#DejaVuSans-6c" transform="translate(54.980469 0)"/>
     <use xlink:href="#DejaVuSans-69" transform="translate(82.763672 0)"/>
     <use xlink:href="#DejaVuSans-66" transform="translate(110.546875 0)"/>
     <use xlink:href="#DejaVuSans-66" transform="translate(145.751953 0)"/>
     <use xlink:href="#DejaVuSans-20" transform="translate(180.957031 0)"/>
     <use xlink:href="#DejaVuSans-2b" transform="translate(212.744141 0)"/>
     <use xlink:href="#DejaVuSans-20" transform="translate(296.533203 0)"/>
     <use xlink:href="#DejaVuSans-75" transform="translate(328.320312 0)"/>
     <use xlink:href="#DejaVuSans-73" transform="translate(391.699219 0)"/>
     <use xlink:href="#DejaVuSans-65" transform="translate(443.798828 0)"/>
     <use xlink:href="#DejaVuSans-66" transform="translate(505.322266 0)"/>
     <use xlink:href="#DejaVuSans-75" transform="translate(540.527344 0)"/>
     <use xlink:href="#DejaVuSans-6c" transform="translate(603.90625 0)"/>
     <use xlink:href="#DejaVuSans-20" transform="translate(631.689453 0)"/>
     <use xlink:href="#DejaVuSans-6c" transform="translate(663.476562 0)"/>
     <use xlink:href="#DejaVuSans-69" transform="translate(691.259766 0)"/>
     <use xlink:href="#DejaVuSans-66" transform="translate(719.042969 0)"/>
     <use xlink:href="#DejaVuSans-65" transform="translate(754.248047 0)"/>
    </g>
   </g>
   <g id="patch_13">
    <path d="M 726.643055 169.178925 
Q 730.260945 169.178925 732.760801 169.178925 
" style="fill: none; stroke: #4c566a; stroke-linecap: round"/>
    <path d="M 728.760801 167.178925 
L 732.760801 169.178925 
L 728.760801 171.178925 
" style="fill: none; stroke: #4c566a; stroke-linecap: round"/>
   </g>
   <g id="text_13">
    <g id="patch_14">
     <path d="M 766.182 179.517988 
L 815.082 179.517988 
Q 820.582 179.517988 820.582 174.017988 
L 820.582 164.339863 
Q 820.582 158.839863 815.082 158.839863 
L 766.182 158.839863 
Q 760.682 158.839863 760.682 164.339863 
L 760.682 174.017988 
Q 760.682 179.517988 766.182 179.517988 
z
" style="fill: #fcefe3; stroke: #4c566a; stroke-linejoin: miter"/>
    </g>
    <!-- Strategy -->
    <g transform="translate(766.182 171.860175) scale(0.1 -0.1)">
     <defs>
      <path id="DejaVuSans-Bold-79" d="M 78 3500 
L 1197 3500 
L 2138 1125 
L 2938 3500 
L 4056 3500 
L 2584 -331 
Q 2363 -916 2067 -1148 
Q 1772 -1381 1288 -1381 
L 641 -1381 
L 641 -647 
L 991 -647 
Q 1275 -647 1404 -556 
Q 1534 -466 1606 -231 
L 1638 -134 
L 78 3500 
z
" transform="scale(0.015625)"/>
     </defs>
     <use xlink:href="#DejaVuSans-Bold-53"/>
     <use xlink:href="#DejaVuSans-Bold-74" transform="translate(72.021484 0)"/>
     <use xlink:href="#DejaVuSans-Bold-72" transform="translate(119.824219 0)"/>
     <use xlink:href="#DejaVuSans-Bold-61" transform="translate(169.140625 0)"/>
     <use xlink:href="#DejaVuSans-Bold-74" transform="translate(236.621094 0)"/>
     <use xlink:href="#DejaVuSans-Bold-65" transform="translate(284.423828 0)"/>
     <use xlink:href="#DejaVuSans-Bold-67" transform="translate(352.246094 0)"/>
     <use xlink:href="#DejaVuSans-Bold-79" transform="translate(423.828125 0)"/>
    </g>
   </g>
   <g id="text_14">
    <!-- constrained search -->
    <g transform="translate(752.4995 226.4381) scale(0.08 -0.08)">
     <use xlink:href="#DejaVuSans-63"/>
     <use xlink:href="#DejaVuSans-6f" transform="translate(54.980469 0)"/>
     <use xlink:href="#DejaVuSans-6e" transform="translate(116.162109 0)"/>
     <use xlink:href="#DejaVuSans-73" transform="translate(179.541016 0)"/>
     <use xlink:href="#DejaVuSans-74" transform="translate(231.640625 0)"/>
     <use xlink:href="#DejaVuSans-72" transform="translate(270.849609 0)"/>
     <use xlink:href="#DejaVuSans-61" transform="translate(311.962891 0)"/>
     <use xlink:href="#DejaVuSans-69" transform="translate(373.242188 0)"/>
     <use xlink:href="#DejaVuSans-6e" transform="translate(401.025391 0)"/>
     <use xlink:href="#DejaVuSans-65" transform="translate(464.404297 0)"/>
     <use xlink:href="#DejaVuSans-64" transform="translate(525.927734 0)"/>
     <use xlink:href="#DejaVuSans-20" transform="translate(589.404297 0)"/>
     <use xlink:href="#DejaVuSans-73" transform="translate(621.191406 0)"/>
     <use xlink:href="#DejaVuSans-65" transform="translate(673.291016 0)"/>
     <use xlink:href="#DejaVuSans-61" transform="translate(734.814453 0)"/>
     <use xlink:href="#DejaVuSans-72" transform="translate(796.09375 0)"/>
     <use xlink:href="#DejaVuSans-63" transform="translate(834.957031 0)"/>
     <use xlink:href="#DejaVuSans-68" transform="translate(889.9375 0)"/>
    </g>
    <!-- pit recommendations -->
    <g transform="translate(747.9545 235.39635) scale(0.08 -0.08)">
     <defs>
      <path id="DejaVuSans-6d" d="M 3328 2828 
Q 3544 3216 3844 3400 
Q 4144 3584 4550 3584 
Q 5097 3584 5394 3201 
Q 5691 2819 5691 2113 
L 5691 0 
L 5113 0 
L 5113 2094 
Q 5113 2597 4934 2840 
Q 4756 3084 4391 3084 
Q 3944 3084 3684 2787 
Q 3425 2491 3425 1978 
L 3425 0 
L 2847 0 
L 2847 2094 
Q 2847 2600 2669 2842 
Q 2491 3084 2119 3084 
Q 1678 3084 1418 2786 
Q 1159 2488 1159 1978 
L 1159 0 
L 581 0 
L 581 3500 
L 1159 3500 
L 1159 2956 
Q 1356 3278 1631 3431 
Q 1906 3584 2284 3584 
Q 2666 3584 2933 3390 
Q 3200 3197 3328 2828 
z
" transform="scale(0.015625)"/>
     </defs>
     <use xlink:href="#DejaVuSans-70"/>
     <use xlink:href="#DejaVuSans-69" transform="translate(63.476562 0)"/>
     <use xlink:href="#DejaVuSans-74" transform="translate(91.259766 0)"/>
     <use xlink:href="#DejaVuSans-20" transform="translate(130.46875 0)"/>
     <use xlink:href="#DejaVuSans-72" transform="translate(162.255859 0)"/>
     <use xlink:href="#DejaVuSans-65" transform="translate(201.119141 0)"/>
     <use xlink:href="#DejaVuSans-63" transform="translate(262.642578 0)"/>
     <use xlink:href="#DejaVuSans-6f" transform="translate(317.623047 0)"/>
     <use xlink:href="#DejaVuSans-6d" transform="translate(378.804688 0)"/>
     <use xlink:href="#DejaVuSans-6d" transform="translate(476.216797 0)"/>
     <use xlink:href="#DejaVuSans-65" transform="translate(573.628906 0)"/>
     <use xlink:href="#DejaVuSans-6e" transform="translate(635.152344 0)"/>
     <use xlink:href="#DejaVuSans-64" transform="translate(698.53125 0)"/>
     <use xlink:href="#DejaVuSans-61" transform="translate(762.007812 0)"/>
     <use xlink:href="#DejaVuSans-74" transform="translate(823.287109 0)"/>
     <use xlink:href="#DejaVuSans-69" transform="translate(862.496094 0)"/>
     <use xlink:href="#DejaVuSans-6f" transform="translate(890.279297 0)"/>
     <use xlink:href="#DejaVuSans-6e" transform="translate(951.460938 0)"/>
     <use xlink:href="#DejaVuSans-73" transform="translate(1014.839844 0)"/>
    </g>
   </g>
   <g id="text_15">
    <!-- Reproducible Formula 1 tire-degradation and strategy pipeline -->
    <g transform="translate(240.977812 16.318125) scale(0.12 -0.12)">
     <defs>
      <path id="DejaVuSans-62" d="M 3116 1747 
Q 3116 2381 2855 2742 
Q 2594 3103 2138 3103 
Q 1681 3103 1420 2742 
Q 1159 2381 1159 1747 
Q 1159 1113 1420 752 
Q 1681 391 2138 391 
Q 2594 391 2855 752 
Q 3116 1113 3116 1747 
z
M 1159 2969 
Q 1341 3281 1617 3432 
Q 1894 3584 2278 3584 
Q 2916 3584 3314 3078 
Q 3713 2572 3713 1747 
Q 3713 922 3314 415 
Q 2916 -91 2278 -91 
Q 1894 -91 1617 61 
Q 1341 213 1159 525 
L 1159 0 
L 581 0 
L 581 4863 
L 1159 4863 
L 1159 2969 
z
" transform="scale(0.015625)"/>
      <path id="DejaVuSans-79" d="M 2059 -325 
Q 1816 -950 1584 -1140 
Q 1353 -1331 966 -1331 
L 506 -1331 
L 506 -850 
L 844 -850 
Q 1081 -850 1212 -737 
Q 1344 -625 1503 -206 
L 1606 56 
L 191 3500 
L 800 3500 
L 1894 763 
L 2988 3500 
L 3597 3500 
L 2059 -325 
z
" transform="scale(0.015625)"/>
     </defs>
     <use xlink:href="#DejaVuSans-52"/>
     <use xlink:href="#DejaVuSans-65" transform="translate(64.982422 0)"/>
     <use xlink:href="#DejaVuSans-70" transform="translate(126.505859 0)"/>
     <use xlink:href="#DejaVuSans-72" transform="translate(189.982422 0)"/>
     <use xlink:href="#DejaVuSans-6f" transform="translate(228.845703 0)"/>
     <use xlink:href="#DejaVuSans-64" transform="translate(290.027344 0)"/>
     <use xlink:href="#DejaVuSans-75" transform="translate(353.503906 0)"/>
     <use xlink:href="#DejaVuSans-63" transform="translate(416.882812 0)"/>
     <use xlink:href="#DejaVuSans-69" transform="translate(471.863281 0)"/>
     <use xlink:href="#DejaVuSans-62" transform="translate(499.646484 0)"/>
     <use xlink:href="#DejaVuSans-6c" transform="translate(563.123047 0)"/>
     <use xlink:href="#DejaVuSans-65" transform="translate(590.90625 0)"/>
     <use xlink:href="#DejaVuSans-20" transform="translate(652.429688 0)"/>
     <use xlink:href="#DejaVuSans-46" transform="translate(684.216797 0)"/>
     <use xlink:href="#DejaVuSans-6f" transform="translate(738.111328 0)"/>
     <use xlink:href="#DejaVuSans-72" transform="translate(799.292969 0)"/>
     <use xlink:href="#DejaVuSans-6d" transform="translate(838.65625 0)"/>
     <use xlink:href="#DejaVuSans-75" transform="translate(936.068359 0)"/>
     <use xlink:href="#DejaVuSans-6c" transform="translate(999.447266 0)"/>
     <use xlink:href="#DejaVuSans-61" transform="translate(1027.230469 0)"/>
     <use xlink:href="#DejaVuSans-20" transform="translate(1088.509766 0)"/>
     <use xlink:href="#DejaVuSans-31" transform="translate(1120.296875 0)"/>
     <use xlink:href="#DejaVuSans-20" transform="translate(1183.919922 0)"/>
     <use xlink:href="#DejaVuSans-74" transform="translate(1215.707031 0)"/>
     <use xlink:href="#DejaVuSans-69" transform="translate(1254.916016 0)"/>
     <use xlink:href="#DejaVuSans-72" transform="translate(1282.699219 0)"/>
     <use xlink:href="#DejaVuSans-65" transform="translate(1321.5625 0)"/>
     <use xlink:href="#DejaVuSans-2d" transform="translate(1383.085938 0)"/>
     <use xlink:href="#DejaVuSans-64" transform="translate(1419.169922 0)"/>
     <use xlink:href="#DejaVuSans-65" transform="translate(1482.646484 0)"/>
     <use xlink:href="#DejaVuSans-67" transform="translate(1544.169922 0)"/>
     <use xlink:href="#DejaVuSans-72" transform="translate(1607.646484 0)"/>
     <use xlink:href="#DejaVuSans-61" transform="translate(1648.759766 0)"/>
     <use xlink:href="#DejaVuSans-64" transform="translate(1710.039062 0)"/>
     <use xlink:href="#DejaVuSans-61" transform="translate(1773.515625 0)"/>
     <use xlink:href="#DejaVuSans-74" transform="translate(1834.794922 0)"/>
     <use xlink:href="#DejaVuSans-69" transform="translate(1874.003906 0)"/>
     <use xlink:href="#DejaVuSans-6f" transform="translate(1901.787109 0)"/>
     <use xlink:href="#DejaVuSans-6e" transform="translate(1962.96875 0)"/>
     <use xlink:href="#DejaVuSans-20" transform="translate(2026.347656 0)"/>
     <use xlink:href="#DejaVuSans-61" transform="translate(2058.134766 0)"/>
     <use xlink:href="#DejaVuSans-6e" transform="translate(2119.414062 0)"/>
     <use xlink:href="#DejaVuSans-64" transform="translate(2182.792969 0)"/>
     <use xlink:href="#DejaVuSans-20" transform="translate(2246.269531 0)"/>
     <use xlink:href="#DejaVuSans-73" transform="translate(2278.056641 0)"/>
     <use xlink:href="#DejaVuSans-74" transform="translate(2330.15625 0)"/>
     <use xlink:href="#DejaVuSans-72" transform="translate(2369.365234 0)"/>
     <use xlink:href="#DejaVuSans-61" transform="translate(2410.478516 0)"/>
     <use xlink:href="#DejaVuSans-74" transform="translate(2471.757812 0)"/>
     <use xlink:href="#DejaVuSans-65" transform="translate(2510.966797 0)"/>
     <use xlink:href="#DejaVuSans-67" transform="translate(2572.490234 0)"/>
     <use xlink:href="#DejaVuSans-79" transform="translate(2635.966797 0)"/>
     <use xlink:href="#DejaVuSans-20" transform="translate(2695.146484 0)"/>
     <use xlink:href="#DejaVuSans-70" transform="translate(2726.933594 0)"/>
     <use xlink:href="#DejaVuSans-69" transform="translate(2790.410156 0)"/>
     <use xlink:href="#DejaVuSans-70" transform="translate(2818.193359 0)"/>
     <use xlink:href="#DejaVuSans-65" transform="translate(2881.669922 0)"/>
     <use xlink:href="#DejaVuSans-6c" transform="translate(2943.193359 0)"/>
     <use xlink:href="#DejaVuSans-69" transform="translate(2970.976562 0)"/>
     <use xlink:href="#DejaVuSans-6e" transform="translate(2998.759766 0)"/>
     <use xlink:href="#DejaVuSans-65" transform="translate(3062.138672 0)"/>
    </g>
   </g>
  </g>
 </g>
</svg>
